<?xml version="1.0" standalone="no"?>
<!DOCTYPE svg PUBLIC "-//W3C//DTD SVG 20010904//EN"
 "http://www.w3.org/TR/2001/REC-SVG-20010904/DTD/svg10.dtd">
<svg version="1.0" xmlns="http://www.w3.org/2000/svg"
 width="256.000000pt" height="256.000000pt" viewBox="0 0 256.000000 256.000000"
 preserveAspectRatio="xMidYMid meet">
<metadata>
Created by potrace 1.13, written by Peter Selinger 2001-2015
</metadata>
<g transform="translate(0.000000,256.000000) scale(0.100000,-0.100000)"
fill="#000000" stroke="none">
<path d="M1235 2543 c-66 -14 -95 -33 -172 -106 l-85 -81 -112 -2 c-128 -2
-177 -18 -234 -75 -63 -62 -76 -101 -80 -234 l-4 -120 -73 -75 c-88 -89 -115
-141 -115 -225 0 -84 27 -136 115 -225 l73 -75 4 -120 c3 -100 8 -127 26 -162
50 -96 131 -143 252 -145 68 -2 80 -5 75 -18 -4 -8 -97 -160 -207 -338 -179
-288 -199 -325 -186 -339 14 -14 499 -192 525 -193 7 0 16 8 22 17 7 14 90
328 106 403 21 98 69 266 77 271 5 3 26 6 46 5 l37 -2 85 -339 c53 -207 92
-342 101 -348 10 -6 89 18 259 78 257 91 295 108 287 130 -5 11 -78 129 -324
524 -45 73 -83 136 -83 140 0 3 35 7 78 8 120 2 204 51 255 147 17 34 22 63
25 161 l4 120 73 75 c87 90 106 124 113 207 7 93 -15 141 -109 238 l-78 80 -2
112 c-2 132 -21 185 -87 245 -64 58 -101 69 -229 72 l-113 2 -79 77 c-43 43
-95 84 -114 92 -38 16 -119 25 -152 18z m99 -65 c29 -9 67 -37 131 -99 l90
-87 131 -3 c123 -4 133 -6 172 -32 68 -45 85 -90 87 -235 l1 -123 82 -82 c152
-153 152 -231 0 -384 l-82 -82 -2 -123 c-2 -146 -18 -191 -86 -235 -39 -26
-49 -28 -172 -32 l-131 -3 -90 -87 c-93 -90 -131 -110 -196 -105 -60 4 -90 23
-178 108 l-86 84 -131 4 c-123 3 -133 5 -172 31 -68 44 -84 89 -87 235 l-2
123 -80 82 c-93 94 -113 128 -113 192 0 64 20 98 113 192 l81 83 1 122 c1 103
5 129 22 163 44 84 91 104 252 105 l114 0 93 89 c111 108 150 125 238 99z
m-270 -1666 c39 -38 79 -73 89 -78 17 -10 13 -30 -59 -315 -42 -167 -77 -310
-77 -316 0 -7 -5 -13 -11 -13 -11 0 -407 140 -415 146 -5 5 390 644 398 644 3
0 36 -31 75 -68z m615 -100 c57 -92 114 -183 126 -202 49 -75 165 -265 165
-270 0 -11 -412 -152 -420 -144 -5 7 -97 357 -115 444 -2 8 -13 53 -25 99 -20
81 -21 85 -3 94 10 6 50 41 88 78 39 38 72 69 75 69 3 0 52 -75 109 -168z"/>
<path d="M1132 2261 c-236 -58 -429 -250 -487 -485 -101 -410 234 -820 655
-801 97 4 122 8 198 35 310 109 499 463 416 775 -57 214 -229 394 -444 465
-91 30 -241 34 -338 11z m238 -55 c185 -19 374 -165 453 -351 47 -110 57 -290
23 -398 -65 -206 -223 -355 -429 -406 -43 -10 -181 -15 -232 -7 -175 26 -336
140 -425 303 -85 157 -90 365 -12 534 81 175 270 310 457 326 33 3 62 7 64 9
2 2 15 1 30 -1 14 -2 46 -6 71 -9z"/>
<path d="M1238 2048 c-12 -24 -40 -79 -61 -123 -21 -44 -43 -83 -49 -86 -10
-6 -68 -18 -118 -24 -8 -1 -37 -5 -65 -9 -142 -20 -142 -26 -9 -155 91 -90
103 -104 98 -129 -22 -119 -41 -249 -37 -259 9 -24 44 -13 164 50 l119 62 120
-62 c65 -35 128 -63 139 -63 19 0 37 32 27 48 -5 8 -9 34 -32 176 -3 21 -7 47
-9 58 -3 14 24 46 95 115 69 66 100 103 100 119 0 26 -12 29 -165 49 -136 18
-120 6 -189 145 -72 147 -90 160 -128 88z m98 -171 c57 -113 44 -104 179 -121
119 -15 117 -7 21 -101 -76 -74 -85 -87 -81 -112 3 -15 12 -64 20 -108 8 -44
15 -84 15 -88 0 -5 -43 14 -96 42 -53 28 -105 51 -114 51 -9 0 -61 -23 -115
-51 l-97 -52 6 29 c6 30 9 47 21 124 3 25 9 53 11 62 4 12 -22 44 -82 103 -48
47 -83 85 -78 86 5 0 17 2 26 4 21 4 91 14 138 21 62 8 67 13 116 114 27 55
51 100 54 100 3 0 28 -46 56 -103z"/>
</g>
</svg>
