<?xml version="1.0" standalone="no"?>
<!DOCTYPE svg PUBLIC "-//W3C//DTD SVG 20010904//EN"
 "http://www.w3.org/TR/2001/REC-SVG-20010904/DTD/svg10.dtd">
<svg version="1.0" xmlns="http://www.w3.org/2000/svg"
 width="447.000000pt" height="334.000000pt" viewBox="0 0 447.000000 334.000000"
 preserveAspectRatio="xMidYMid meet">

<g transform="translate(0.000000,334.000000) scale(0.100000,-0.100000)"
fill="#000000" stroke="none">
<path d="M3807 3318 c-41 -9 -47 -13 -41 -30 5 -17 2 -19 -23 -16 -17 2 -27 8
-25 17 2 9 -4 12 -20 8 -13 -3 -43 -9 -68 -13 -25 -4 -52 -10 -60 -15 -9 -4
-43 -10 -75 -13 -33 -3 -145 -22 -250 -41 -202 -38 -390 -73 -440 -80 -112
-17 -504 -89 -520 -96 -18 -7 -68 -16 -128 -23 -106 -13 -128 -19 -123 -32 4
-11 1 -12 -13 -5 -19 11 -117 -4 -521 -78 -118 -22 -237 -44 -265 -48 -34 -6
-49 -13 -47 -23 2 -10 0 -11 -11 -2 -11 10 -49 5 -173 -19 -88 -17 -184 -34
-215 -39 -32 -4 -66 -13 -77 -19 -10 -6 -22 -8 -25 -5 -8 9 -157 -17 -164 -29
-3 -5 1 -13 8 -18 9 -6 10 -9 2 -9 -6 0 -19 8 -29 17 -15 16 -17 16 -29 0 -7
-10 -15 -13 -21 -7 -11 11 -237 -25 -269 -43 -11 -6 -36 -10 -56 -8 -29 1 -43
-5 -68 -29 -35 -35 -38 -45 -16 -54 9 -3 12 -12 8 -23 -6 -17 -5 -17 15 1 20
17 22 17 28 2 3 -9 15 -16 25 -16 10 0 19 -4 19 -10 0 -5 -4 -10 -10 -10 -5 0
-7 -8 -3 -17 3 -11 -5 -7 -23 11 -15 16 -30 24 -32 18 -2 -7 -15 -9 -33 -5
-22 4 -29 2 -29 -11 0 -11 9 -16 31 -16 38 0 35 -24 -4 -28 -31 -4 -31 -5 5
-182 24 -117 26 -130 27 -155 1 -11 6 -27 11 -35 8 -12 13 -13 30 -2 30 18 60
-1 60 -37 0 -16 -7 -31 -15 -35 -8 -3 -15 -1 -15 4 0 6 6 10 13 11 6 0 2 4
-10 9 -11 5 -30 6 -42 3 -17 -4 -20 -10 -15 -32 10 -38 11 -39 39 -34 16 4 27
0 30 -9 4 -10 15 -13 31 -10 17 3 24 0 24 -11 0 -13 -6 -14 -37 -5 -27 7 -38
7 -41 -1 -2 -6 -11 -11 -19 -11 -10 0 -13 -6 -9 -16 3 -9 6 -23 6 -31 0 -11 7
-14 24 -11 15 3 27 0 30 -7 7 -19 67 -46 88 -39 22 7 24 -12 3 -23 -13 -8 -13
-11 1 -31 8 -12 22 -22 30 -22 17 0 19 -16 2 -17 -7 0 -21 -4 -32 -8 -16 -7
-17 -5 -11 16 6 19 5 22 -6 12 -10 -10 -16 -6 -31 18 -10 17 -16 34 -14 38 3
4 -5 7 -17 7 -15 -1 -23 6 -25 22 -4 26 -32 30 -31 5 1 -33 34 -191 41 -199 4
-4 15 -1 24 7 14 11 19 10 33 -7 20 -25 45 -21 31 5 -9 18 -4 31 11 31 5 0 6
-7 2 -16 -4 -10 1 -22 11 -30 10 -7 15 -17 11 -23 -8 -14 -62 -14 -70 -1 -3 5
-14 1 -25 -10 -28 -28 -26 -42 6 -30 31 12 37 12 30 1 -3 -5 6 -12 22 -16 l27
-7 -27 -10 c-16 -5 -28 -16 -28 -24 0 -8 -9 -14 -21 -14 -17 0 -20 -4 -15 -27
3 -16 15 -77 26 -138 12 -60 24 -117 27 -125 3 -8 5 -23 4 -33 -4 -28 18 -50
36 -35 14 12 86 28 136 31 15 1 27 3 27 5 0 1 -14 77 -30 169 -17 91 -30 169
-30 174 0 5 -7 6 -15 3 -8 -4 -15 -2 -15 4 0 5 6 12 14 15 11 4 12 14 6 42
-11 47 -15 51 -45 37 -28 -13 -30 -10 -14 19 6 12 17 18 25 15 17 -6 19 31 4
78 -5 17 -19 92 -31 167 -21 132 -23 137 -46 137 -25 0 -51 17 -41 27 3 3 17
1 32 -4 32 -13 31 -15 10 110 -10 55 -22 96 -28 95 -6 0 -11 4 -11 9 0 6 4 9
9 7 5 -2 6 12 2 30 -4 18 -9 50 -13 71 -3 21 -12 41 -20 44 -12 5 -12 7 -1 14
10 7 9 9 -4 9 -10 0 -18 3 -19 8 0 4 -3 19 -5 35 -5 30 7 35 27 11 10 -13 10
-17 -1 -24 -29 -18 -2 -18 105 1 149 27 146 25 107 58 -22 19 -31 33 -26 44 8
21 24 22 24 3 0 -21 39 -46 70 -46 14 0 30 -4 35 -9 6 -6 27 -6 55 -1 25 5
200 37 390 71 190 34 451 81 580 106 129 24 242 45 250 45 8 0 121 19 250 43
129 24 366 66 525 95 160 29 314 56 343 62 48 9 52 12 52 37 0 15 6 33 13 41
10 12 9 12 -5 1 -15 -12 -18 -11 -18 3 0 9 10 21 23 26 12 5 18 9 13 9 -4 1
-1 12 7 25 12 18 13 26 4 36 -10 10 -7 12 11 7 15 -3 22 -1 22 9 0 8 5 14 10
14 14 0 12 -11 -10 -55 -15 -29 -17 -41 -8 -46 17 -11 28 11 22 38 -5 18 -1
23 21 29 18 4 30 2 36 -7 6 -11 11 -11 21 -1 16 16 29 15 22 -2 -3 -7 2 -16
10 -19 27 -10 18 -24 -16 -25 -17 0 -35 -8 -40 -16 -5 -9 -17 -16 -26 -17 -10
0 -12 -3 -4 -6 6 -2 12 -9 12 -14 0 -6 -5 -7 -12 -3 -6 4 -8 3 -5 -3 10 -16
66 -24 106 -14 20 5 90 18 156 30 323 57 388 70 394 78 9 15 64 23 105 16 40
-6 37 1 75 -218 10 -60 19 -100 20 -88 1 12 6 25 12 28 13 9 15 7 23 -28 6
-24 3 -30 -14 -34 -16 -4 -20 -11 -16 -27 3 -11 19 -100 36 -196 17 -96 47
-258 65 -360 19 -102 40 -215 46 -252 7 -37 15 -67 18 -66 19 2 24 -4 12 -11
-16 -10 -15 -19 55 -394 l28 -149 38 4 c48 5 50 -9 2 -18 l-36 -7 7 -46 c4
-25 17 -101 31 -169 13 -68 26 -144 30 -171 l6 -47 -153 -29 c-85 -16 -161
-29 -169 -30 -83 -9 -167 -30 -178 -43 -9 -12 -15 -14 -20 -5 -5 8 -21 9 -57
2 -85 -15 -95 -19 -95 -35 0 -14 -3 -14 -15 -4 -10 9 -15 9 -15 1 0 -6 -11
-11 -25 -11 -14 0 -25 4 -25 9 0 5 -18 5 -42 0 -24 -4 -87 -15 -140 -25 -54
-9 -98 -20 -98 -25 0 -5 9 -9 20 -9 25 0 26 -16 1 -30 -33 -17 -53 -12 -49 12
2 17 -3 24 -19 26 -13 2 -23 -2 -23 -8 0 -6 -5 -8 -10 -5 -19 12 -69 -5 -63
-21 4 -10 -2 -14 -22 -14 -14 0 -24 4 -21 9 3 4 -7 7 -22 6 -15 -1 -37 -3 -50
-3 -14 -1 -20 -6 -17 -13 4 -6 14 -8 22 -5 17 7 143 -23 143 -34 0 -13 -30
-20 -56 -14 -13 3 -24 10 -24 15 0 5 -15 9 -34 9 -19 0 -37 4 -40 9 -12 19
-67 18 -200 -5 -137 -24 -173 -34 -127 -34 19 0 22 -4 17 -24 -4 -18 0 -28 19
-40 29 -19 60 -22 49 -4 -5 8 -2 9 10 5 10 -4 25 -7 34 -7 11 0 6 -6 -12 -15
-36 -19 -61 -19 -80 0 -8 8 -19 15 -25 15 -6 0 -11 5 -11 10 0 6 -8 10 -18 10
-10 0 -27 7 -38 15 -11 8 -41 14 -69 15 -27 0 -45 -4 -38 -8 13 -8 6 -62 -8
-62 -8 0 -13 24 -12 58 1 7 -10 1 -23 -13 -12 -14 -25 -25 -27 -25 -2 0 -27 4
-56 10 -54 10 -41 12 -411 -55 -80 -14 -152 -30 -161 -35 -9 -5 -26 -6 -37 -3
-11 3 -29 0 -39 -6 -13 -8 -14 -11 -3 -10 27 3 40 -1 40 -11 0 -14 -43 -13
-58 2 -9 9 -15 9 -23 1 -7 -7 -25 -9 -40 -6 -16 3 -83 -5 -149 -18 -106 -20
-121 -25 -117 -41 6 -22 -11 -24 -20 -2 -4 12 -14 14 -47 9 -22 -4 -47 -12
-53 -17 -8 -6 -13 -7 -13 -1 0 12 -203 -25 -211 -38 -3 -6 -12 -7 -20 -4 -8 3
-75 -6 -148 -20 -74 -14 -145 -25 -158 -25 -18 0 -23 -4 -20 -14 4 -9 -5 -21
-19 -31 -34 -22 -43 -11 -13 14 24 20 24 20 2 21 -19 0 -22 7 -28 55 -7 54
-12 59 -49 55 -13 -1 -17 3 -13 14 4 9 2 16 -3 16 -6 0 -10 5 -10 10 0 6 9 10
21 10 11 0 18 -4 15 -9 -3 -5 1 -11 9 -15 10 -4 15 1 15 14 0 11 -5 20 -11 20
-7 0 -9 9 -6 22 6 21 -34 246 -48 267 -3 6 -12 8 -18 5 -7 -4 -5 1 4 10 14 15
15 25 4 79 -7 34 -21 112 -31 172 -9 61 -22 113 -27 116 -5 4 -18 4 -28 2 -10
-3 -19 0 -19 6 0 6 5 11 11 11 5 0 8 4 5 9 -4 5 4 7 16 3 17 -4 20 -2 15 12
-4 10 -7 22 -7 27 0 5 -7 9 -15 9 -8 0 -15 -6 -15 -12 0 -9 -3 -8 -10 2 -10
17 -87 17 -104 0 -5 -5 -20 -10 -33 -10 -13 0 -23 -4 -23 -10 0 -5 8 -10 18
-10 13 0 14 -2 4 -9 -11 -6 -10 -25 3 -102 9 -52 18 -107 20 -124 3 -16 8 -41
11 -55 10 -34 11 -41 12 -72 1 -18 8 -28 17 -28 16 0 21 -25 6 -34 -5 -3 -4
-24 1 -48 5 -24 10 -54 11 -68 2 -24 4 -25 70 -23 43 2 66 -1 62 -7 -3 -6 -24
-10 -46 -10 -55 0 -82 -15 -69 -39 5 -10 7 -21 3 -24 -3 -3 -2 -18 1 -32 5
-20 12 -26 29 -23 26 3 50 -10 42 -23 -4 -5 -16 -9 -29 -9 -15 0 -23 -6 -24
-17 -1 -22 15 -114 30 -171 10 -38 12 -40 24 -25 12 16 13 16 14 -9 0 -14 -4
-28 -10 -30 -6 -2 -6 -8 0 -18 9 -13 11 -13 21 0 8 11 12 12 16 3 2 -7 12 -13
22 -13 15 0 51 -32 51 -45 0 -11 -49 -4 -52 6 -2 7 -11 10 -19 7 -9 -3 -3 -12
21 -27 45 -27 70 -25 390 34 135 24 310 56 389 70 102 18 148 31 158 43 10 14
14 14 22 4 7 -11 19 -12 62 -3 30 6 131 24 224 40 94 16 242 43 330 59 88 16
194 35 235 42 96 16 103 19 97 41 -3 11 4 24 19 34 27 17 44 19 44 5 0 -5 -7
-10 -15 -10 -8 0 -15 -9 -15 -19 0 -24 17 -23 215 13 77 14 162 28 188 32 28
4 51 13 54 21 4 11 8 12 13 3 5 -8 13 -9 21 -4 7 4 35 9 62 10 28 2 53 7 56
12 3 5 25 10 47 10 23 1 72 8 110 16 38 8 92 17 119 21 28 3 57 11 65 17 11 7
6 8 -17 4 -18 -3 -35 -1 -38 4 -4 6 8 10 26 10 18 0 41 7 51 17 17 15 18 15
18 0 0 -10 -4 -17 -10 -17 -5 0 -10 -5 -10 -11 0 -6 10 -9 23 -6 12 3 66 13
120 22 68 12 97 22 97 31 0 16 12 18 26 4 7 -7 38 -5 95 6 46 9 86 17 88 20 2
2 -8 8 -23 13 -35 14 -35 35 2 27 57 -15 139 -18 146 -7 8 13 43 15 48 2 2 -5
57 1 123 14 111 20 120 23 118 43 -3 28 8 28 25 1 12 -20 14 -20 38 -4 14 9
32 14 39 11 27 -10 24 11 -2 23 -28 13 -23 24 15 36 13 4 22 2 22 -4 0 -22 18
-10 30 19 16 39 8 164 -20 295 -12 55 -22 110 -23 123 -1 12 -4 22 -7 22 -3 0
-5 15 -5 33 -1 33 -8 81 -25 157 -14 67 -59 318 -66 373 -4 30 -12 47 -20 47
-8 0 -14 5 -14 11 0 5 5 7 10 4 15 -9 13 6 -20 176 -16 85 -38 208 -50 274
-34 200 -51 289 -57 305 -3 8 -6 26 -8 40 -7 88 -59 347 -71 356 -8 7 -10 14
-4 20 11 11 -7 124 -20 124 -4 0 -33 -27 -66 -60 -55 -56 -84 -73 -84 -50 0 6
4 10 10 10 5 0 7 7 4 15 -4 10 0 15 15 15 13 0 26 10 33 26 7 15 28 32 51 41
34 14 38 19 32 42 -12 48 -37 91 -71 121 -38 33 -75 37 -167 18z m121 -9 c-5
-14 -78 -40 -91 -32 -15 9 10 26 50 33 21 4 40 8 41 9 2 0 2 -4 0 -10z m-568
-149 c0 -5 -5 -10 -11 -10 -5 0 -7 5 -4 10 3 6 8 10 11 10 2 0 4 -4 4 -10z
m615 -10 c-3 -5 -13 -10 -21 -10 -8 0 -12 5 -9 10 3 6 13 10 21 10 8 0 12 -4
9 -10z m-392 -30 c-3 -11 -12 -20 -19 -20 -12 0 -12 4 -2 20 7 11 16 20 19 20
4 0 5 -9 2 -20z m-703 -30 c0 -5 -4 -10 -10 -10 -5 0 -10 5 -10 10 0 6 5 10
10 10 6 0 10 -4 10 -10z m506 0 c6 -6 21 -6 42 -1 43 13 41 -1 -3 -21 -32 -14
-36 -14 -55 4 -11 10 -20 21 -20 23 0 9 26 5 36 -5z m-166 -20 c0 -5 -5 -10
-11 -10 -5 0 -7 5 -4 10 3 6 8 10 11 10 2 0 4 -4 4 -10z m-680 -20 c0 -5 -5
-10 -11 -10 -5 0 -7 5 -4 10 3 6 8 10 11 10 2 0 4 -4 4 -10z m-57 -19 c25 -25
-26 -41 -63 -21 -31 17 -14 43 24 36 17 -4 34 -10 39 -15z m394 3 c-3 -3 -12
-4 -19 -1 -8 3 -5 6 6 6 11 1 17 -2 13 -5z m63 -14 c0 -5 -4 -10 -10 -10 -5 0
-10 5 -10 10 0 6 5 10 10 10 6 0 10 -4 10 -10z m-265 -10 c-3 -5 -11 -10 -16
-10 -6 0 -7 5 -4 10 3 6 11 10 16 10 6 0 7 -4 4 -10z m1265 -10 c0 -5 -2 -10
-4 -10 -3 0 -8 5 -11 10 -3 6 -1 10 4 10 6 0 11 -4 11 -10z m70 0 c0 -5 -7
-10 -15 -10 -8 0 -15 5 -15 10 0 6 7 10 15 10 8 0 15 -4 15 -10z m-1822 -58
c6 -18 -15 -14 -22 4 -4 10 -1 14 6 12 6 -2 14 -10 16 -16z m72 3 c0 -9 -6
-12 -15 -9 -8 4 -15 10 -15 15 0 5 7 9 15 9 8 0 15 -7 15 -15z m40 5 c0 -5 -5
-10 -11 -10 -5 0 -7 5 -4 10 3 6 8 10 11 10 2 0 4 -4 4 -10z m-187 -16 c-23
-17 -33 -17 -33 0 0 8 10 14 25 14 23 0 24 -2 8 -14z m433 -9 c-23 -17 -36
-19 -36 -6 0 11 18 19 40 20 11 0 10 -3 -4 -14z m-526 -4 c0 -5 -9 -7 -20 -4
-11 3 -20 7 -20 9 0 2 9 4 20 4 11 0 20 -4 20 -9z m-190 -30 c0 -6 -4 -13 -10
-16 -5 -3 -10 1 -10 9 0 9 5 16 10 16 6 0 10 -4 10 -9z m290 -11 c0 -5 -4 -10
-9 -10 -6 0 -13 5 -16 10 -3 6 1 10 9 10 9 0 16 -4 16 -10z m-330 -40 c0 -5
-7 -10 -15 -10 -8 0 -15 5 -15 10 0 6 7 10 15 10 8 0 15 -4 15 -10z m-310 -32
c0 -5 -7 -3 -15 6 -8 8 -15 18 -15 22 0 3 7 1 15 -6 8 -7 15 -17 15 -22z m135
-8 c3 -5 1 -10 -4 -10 -6 0 -11 5 -11 10 0 6 2 10 4 10 3 0 8 -4 11 -10z
m-415 -12 c0 -4 -7 -8 -15 -8 -8 0 -15 4 -15 8 0 5 7 9 15 9 8 0 15 -4 15 -9z
m325 2 c3 -5 1 -10 -4 -10 -6 0 -11 5 -11 10 0 6 2 10 4 10 3 0 8 -4 11 -10z
m-775 -95 c0 -8 -7 -15 -15 -15 -8 0 -15 4 -15 9 0 5 -3 17 -7 26 -5 15 -3 16
15 6 12 -7 22 -18 22 -26z m397 18 c3 -7 -3 -9 -16 -6 -12 3 -21 10 -21 15 0
13 32 6 37 -9z m-712 -33 c-3 -5 -15 -10 -26 -10 -10 0 -19 5 -19 10 0 6 12
10 26 10 14 0 23 -4 19 -10z m3675 -20 c0 -5 -5 -10 -11 -10 -5 0 -7 5 -4 10
3 6 8 10 11 10 2 0 4 -4 4 -10z m-3796 -36 c-11 -7 -25 -18 -32 -25 -17 -14
-25 -6 -18 19 4 13 16 19 37 19 29 0 30 -1 13 -13z m-90 -28 c-6 -24 -7 -25
-19 -9 -11 14 -10 19 4 29 21 16 23 12 15 -20z m-152 -11 c0 -5 -5 -11 -10
-13 -5 -1 -9 4 -9 13 0 9 4 14 9 13 5 -2 10 -8 10 -13z m478 7 c0 -4 -10 -9
-22 -9 -18 -2 -20 0 -8 7 18 12 30 13 30 2z m3510 -8 c0 -2 -12 -4 -26 -4 -14
0 -23 4 -20 9 6 8 46 4 46 -5z m-3784 -19 c-19 -14 -36 -12 -36 6 0 5 12 9 28
9 26 -1 26 -1 8 -15z m28 -46 c-8 -14 -24 -10 -24 6 0 9 6 12 15 9 8 -4 12
-10 9 -15z m-200 -37 c3 -5 -1 -9 -9 -9 -8 0 -12 4 -9 9 3 4 7 8 9 8 2 0 6 -4
9 -8z m-9 -32 c3 -5 -1 -10 -9 -10 -9 0 -16 5 -16 10 0 6 4 10 9 10 6 0 13 -4
16 -10z m40 -50 c-3 -5 -10 -10 -16 -10 -5 0 -9 5 -9 10 0 6 7 10 16 10 8 0
12 -4 9 -10z m3942 -46 c-3 -3 -12 -4 -19 -1 -8 3 -5 6 6 6 11 1 17 -2 13 -5z
m-3947 -18 c0 -2 -7 -7 -16 -10 -8 -3 -12 -2 -9 4 6 10 25 14 25 6z m20 -31
c-7 -8 -20 -15 -29 -15 -13 1 -13 3 3 15 26 19 42 19 26 0z m40 -15 c0 -5 -2
-10 -4 -10 -3 0 -8 5 -11 10 -3 6 -1 10 4 10 6 0 11 -4 11 -10z m-17 -94 c16
-13 16 -14 1 -20 -10 -4 -21 -1 -26 6 -18 29 -5 36 25 14z m62 -16 c-3 -5 -11
-10 -16 -10 -6 0 -7 5 -4 10 3 6 11 10 16 10 6 0 7 -4 4 -10z m-15 -30 c0 -5
-5 -12 -11 -16 -14 -8 -33 11 -25 25 7 11 36 4 36 -9z m-50 0 c0 -5 -4 -10
-10 -10 -5 0 -10 5 -10 10 0 6 5 10 10 10 6 0 10 -4 10 -10z m61 -42 c-19 -13
-38 -17 -49 -13 -14 6 -11 9 15 16 18 5 35 14 38 19 4 6 11 7 17 4 6 -4 -3
-15 -21 -26z m-71 14 c0 -5 -7 -9 -15 -9 -8 0 -15 4 -15 9 0 4 7 8 15 8 8 0
15 -4 15 -8z m4000 -2 c0 -5 -4 -10 -10 -10 -5 0 -10 5 -10 10 0 6 5 10 10 10
6 0 10 -4 10 -10z m80 -60 c0 -5 -4 -10 -10 -10 -5 0 -10 5 -10 10 0 6 5 10
10 10 6 0 10 -4 10 -10z m-40 -62 c-13 -5 -31 -6 -39 -2 -12 5 -8 9 14 14 38
8 56 0 25 -12z m-3973 6 c-3 -3 -12 -4 -19 -1 -8 3 -5 6 6 6 11 1 17 -2 13 -5z
m33 -42 c0 -5 -7 -17 -16 -28 -14 -17 -15 -17 -10 -1 3 10 6 23 6 28 0 5 5 9
10 9 6 0 10 -4 10 -8z m3910 -68 c0 -2 -7 -4 -15 -4 -8 0 -15 4 -15 10 0 5 7
7 15 4 8 -4 15 -8 15 -10z m75 -45 c9 -26 2 -33 -27 -26 -15 4 -24 14 -24 27
0 28 42 28 51 -1z m-3925 -39 c0 -5 -2 -10 -4 -10 -3 0 -8 5 -11 10 -3 6 -1
10 4 10 6 0 11 -4 11 -10z m3920 -20 c0 -5 -2 -10 -4 -10 -3 0 -8 5 -11 10 -3
6 -1 10 4 10 6 0 11 -4 11 -10z m-3935 -16 c20 -15 20 -16 -4 -12 -14 2 -26 9
-29 16 -5 16 9 15 33 -4z m3945 -14 c0 -5 -4 -10 -10 -10 -5 0 -10 5 -10 10 0
6 5 10 10 10 6 0 10 -4 10 -10z m-4060 -20 c0 -5 -5 -10 -11 -10 -5 0 -7 5 -4
10 3 6 8 10 11 10 2 0 4 -4 4 -10z m38 -70 c3 -9 -1 -11 -12 -7 -10 4 -25 7
-35 7 -10 0 -17 8 -17 19 0 17 3 18 30 7 16 -6 32 -18 34 -26z m99 -77 c-4 -3
1 -12 11 -19 15 -12 12 -13 -23 -13 l-40 0 24 19 c21 18 43 28 28 13z m-57
-13 c0 -5 -5 -10 -11 -10 -5 0 -7 5 -4 10 3 6 8 10 11 10 2 0 4 -4 4 -10z
m3990 -84 c0 -17 -14 -29 -23 -20 -8 8 3 34 14 34 5 0 9 -6 9 -14z m-60 -26
c0 -5 -4 -10 -10 -10 -5 0 -10 5 -10 10 0 6 5 10 10 10 6 0 10 -4 10 -10z m84
-46 c24 -9 9 -24 -24 -24 -29 0 -45 12 -33 24 8 8 37 8 57 0z m-3980 -183 c3
-5 -7 -11 -22 -14 -32 -6 -42 0 -22 13 19 12 37 13 44 1z m54 0 c10 -6 9 -10
-7 -14 -14 -3 -21 0 -21 9 0 16 9 18 28 5z m-23 -51 c2 -4 -7 -12 -20 -18 -21
-10 -25 -9 -25 3 0 8 -7 15 -16 15 -8 0 -13 4 -10 8 6 10 64 3 71 -8z m55
-129 c0 -11 -28 -41 -39 -41 -20 0 -20 16 1 32 26 20 38 23 38 9z m60 -71 c0
-11 -6 -20 -14 -20 -21 0 -31 21 -15 31 22 14 29 11 29 -11z m0 -38 c0 -5 -12
-14 -27 -21 l-28 -13 20 21 c21 21 35 26 35 13z m-130 -12 c0 -5 -4 -10 -10
-10 -5 0 -10 5 -10 10 0 6 5 10 10 10 6 0 10 -4 10 -10z m53 -66 c8 -8 -16
-33 -25 -27 -13 7 -9 33 5 33 8 0 16 -3 20 -6z m4022 -5 c12 -19 -5 -23 -22
-6 -16 16 -16 17 -1 17 9 0 20 -5 23 -11z m-3920 -9 c-3 -5 0 -10 7 -10 10 0
9 -3 -2 -10 -9 -6 -17 -5 -22 3 -12 19 -9 27 8 27 8 0 12 -4 9 -10z m-77 -49
c3 -8 -1 -12 -9 -9 -7 2 -15 10 -17 17 -3 8 1 12 9 9 7 -2 15 -10 17 -17z
m4026 -9 c3 -5 -3 -9 -12 -9 -17 0 -32 14 -32 30 0 9 36 -9 44 -21z m-3924 3
c0 -9 -7 -18 -15 -21 -8 -4 -15 -15 -15 -25 0 -10 -5 -19 -11 -19 -5 0 -7 5
-4 10 10 16 -15 12 -31 -5 -16 -15 -9 -21 49 -39 9 -3 17 -12 17 -20 0 -12 -5
-14 -26 -6 -14 6 -26 10 -27 10 -11 0 -2 -79 11 -98 12 -18 13 -27 5 -29 -22
-8 -28 -3 -28 17 0 11 -4 20 -10 20 -5 0 -10 -4 -10 -9 0 -5 -3 -13 -7 -17 -5
-4 -8 -1 -8 6 0 7 -8 19 -17 26 -17 12 -16 13 7 14 20 0 22 2 10 10 -13 8 -12
11 3 23 27 19 20 73 -8 68 -20 -3 -20 -3 -1 18 23 25 18 32 -22 33 -21 1 -32
7 -35 19 -6 24 4 24 47 -1 l36 -19 27 24 c32 28 63 32 63 10z m3816 -41 c-9
-35 -26 -18 -19 19 4 19 9 25 16 18 5 -5 6 -22 3 -37z m-386 26 c16 -10 13
-12 -20 -12 -38 0 -45 3 -25 12 26 11 28 11 45 0z m158 -18 c2 -7 -3 -12 -12
-12 -9 0 -16 7 -16 16 0 17 22 14 28 -4z m-140 -14 c-5 -15 -98 -24 -98 -9 0
5 19 12 43 14 23 2 46 4 50 5 5 1 7 -4 5 -10z m407 -27 c3 -5 1 -12 -5 -16 -5
-3 -10 1 -10 9 0 18 6 21 15 7z m-478 -27 c4 -11 -45 -49 -53 -41 -3 2 0 16 6
31 10 27 39 33 47 10z m-347 -24 c0 -10 5 -20 12 -22 6 -2 8 -9 5 -15 -5 -8
-17 -2 -35 15 -24 23 -26 29 -14 39 18 15 32 8 32 -17z m150 20 c0 -5 -4 -10
-10 -10 -5 0 -10 5 -10 10 0 6 5 10 10 10 6 0 10 -4 10 -10z m-265 -50 c3 -5
-1 -10 -9 -10 -9 0 -16 5 -16 10 0 6 4 10 9 10 6 0 13 -4 16 -10z m-190 -68
c-9 -9 -85 -9 -91 -1 -3 5 10 16 28 23 29 13 35 12 51 -1 9 -9 15 -18 12 -21z
m288 31 c-7 -2 -19 -2 -25 0 -7 3 -2 5 12 5 14 0 19 -2 13 -5z m-2983 -7 c0
-2 3 -11 6 -20 3 -9 1 -16 -6 -16 -6 0 -8 5 -5 10 3 6 -1 10 -9 10 -9 0 -16 5
-16 10 0 6 7 10 15 10 8 0 15 -2 15 -4z m3095 -26 c4 -6 -5 -10 -24 -8 -17 1
-31 6 -31 10 0 12 48 10 55 -2z m-655 -21 c0 -4 -7 -6 -15 -3 -8 4 -15 10 -15
15 0 4 7 6 15 3 8 -4 15 -10 15 -15z m520 1 c0 -5 -7 -10 -15 -10 -8 0 -15 5
-15 10 0 6 7 10 15 10 8 0 15 -4 15 -10z m-392 -11 c-10 -5 -18 -19 -18 -30 0
-11 -4 -17 -10 -14 -5 3 -10 10 -10 15 0 13 30 40 43 40 7 0 4 -5 -5 -11z
m152 -1 c0 -5 -15 -8 -32 -7 -22 2 -32 -1 -30 -9 2 -14 -24 -16 -33 -2 -3 6 1
10 9 10 9 0 16 4 16 8 0 4 16 8 35 9 19 1 35 -3 35 -9z m-2700 -33 c0 -8 -4
-15 -10 -15 -5 0 -10 7 -10 15 0 8 5 15 10 15 6 0 10 -7 10 -15z m2280 5 c0
-5 -4 -10 -10 -10 -5 0 -10 5 -10 10 0 6 5 10 10 10 6 0 10 -4 10 -10z m324
-16 c7 -18 -13 -18 -36 0 -25 18 -22 24 6 19 14 -3 27 -11 30 -19z m-306 -26
c7 -7 12 -16 12 -22 0 -6 -5 -5 -12 2 -7 7 -20 12 -30 12 -10 0 -18 5 -18 10
0 14 33 13 48 -2z m-2300 -9 c-2 -6 -8 -10 -13 -10 -5 0 -11 4 -13 10 -2 6 4
11 13 11 9 0 15 -5 13 -11z m-108 -9 c0 -5 -7 -10 -15 -10 -8 0 -15 5 -15 10
0 6 7 10 15 10 8 0 15 -4 15 -10z m1818 -12 c-2 -6 -10 -14 -16 -16 -7 -2 -10
2 -6 12 7 18 28 22 22 4z m232 2 c0 -5 -4 -10 -10 -10 -5 0 -10 5 -10 10 0 6
5 10 10 10 6 0 10 -4 10 -10z m-170 -36 c7 -19 10 -37 8 -38 -14 -12 -69 -23
-73 -15 -4 5 -2 9 3 9 8 0 10 6 14 48 1 16 15 32 30 32 3 0 12 -16 18 -36z
m474 30 c18 -7 12 -24 -10 -24 -8 0 -14 7 -14 15 0 17 2 18 24 9z m-2269 -34
c3 -5 1 -10 -4 -10 -6 0 -11 5 -11 10 0 6 2 10 4 10 3 0 8 -4 11 -10z m1745 6
c0 -3 -4 -8 -10 -11 -5 -3 -10 -1 -10 4 0 6 5 11 10 11 6 0 10 -2 10 -4z m-87
-48 c16 -10 8 -14 -40 -22 -50 -7 -58 8 -10 19 17 4 26 9 19 12 -10 4 -10 8 0
21 12 13 13 13 17 -4 2 -10 8 -22 14 -26z m-379 23 c3 -5 -1 -12 -10 -15 -20
-8 -29 -1 -19 13 8 13 22 14 29 2z m577 -25 c-9 -11 -9 -15 1 -19 7 -3 1 -6
-14 -6 -17 -1 -28 4 -28 12 0 19 10 27 33 27 16 0 17 -3 8 -14z m-1946 -27
c-8 -12 -35 -12 -35 0 0 11 22 20 33 14 4 -2 5 -9 2 -14z m1305 -9 c0 -5 -5
-10 -11 -10 -5 0 -7 5 -4 10 3 6 8 10 11 10 2 0 4 -4 4 -10z m57 -10 c1 -11
-4 -20 -13 -20 -8 0 -14 2 -14 4 0 2 -3 11 -6 20 -4 11 0 16 13 16 12 0 19 -8
20 -20z m-1357 -50 c0 -5 -4 -10 -10 -10 -5 0 -10 5 -10 10 0 6 5 10 10 10 6
0 10 -4 10 -10z m1310 0 c0 -5 -4 -10 -10 -10 -5 0 -10 5 -10 10 0 6 5 10 10
10 6 0 10 -4 10 -10z m-1235 -10 c3 -5 1 -10 -4 -10 -6 0 -11 5 -11 10 0 6 2
10 4 10 3 0 8 -4 11 -10z m766 -11 c11 -5 17 -14 14 -20 -4 -5 1 -9 9 -9 9 0
16 -4 16 -10 0 -17 -28 -11 -42 9 -10 14 -18 17 -28 10 -26 -16 -34 -10 -15
11 21 23 20 23 46 9z m114 -8 c-8 -13 -35 -15 -35 -2 0 5 8 11 18 13 21 5 26
2 17 -11z m168 -6 c-3 -8 -1 -15 5 -15 5 0 12 9 15 21 7 25 40 22 45 -4 3 -12
-3 -17 -21 -17 -14 0 -27 -5 -29 -11 -3 -8 -10 -6 -20 5 -9 9 -21 16 -27 16
-18 0 -12 18 7 23 24 5 32 -1 25 -18z m-53 5 c0 -5 -5 -10 -11 -10 -5 0 -7 5
-4 10 3 6 8 10 11 10 2 0 4 -4 4 -10z m-330 -50 c0 -5 -4 -10 -10 -10 -5 0
-10 5 -10 10 0 6 5 10 10 10 6 0 10 -4 10 -10z m-595 -20 c3 -5 -1 -10 -9 -10
-9 0 -16 5 -16 10 0 6 4 10 9 10 6 0 13 -4 16 -10z m555 -14 c0 -11 -19 -15
-25 -6 -3 5 1 10 9 10 9 0 16 -2 16 -4z m-510 -16 c0 -5 -12 -10 -27 -9 -25 0
-26 1 -8 9 27 12 35 12 35 0z m227 -6 c10 -27 -14 -40 -37 -19 -11 10 -20 22
-20 27 0 15 50 8 57 -8z m-227 -24 c0 -5 -2 -10 -4 -10 -3 0 -8 5 -11 10 -3 6
-1 10 4 10 6 0 11 -4 11 -10z m180 -30 c0 -5 -5 -10 -11 -10 -5 0 -7 5 -4 10
3 6 8 10 11 10 2 0 4 -4 4 -10z m-140 -10 c0 -5 -2 -10 -4 -10 -3 0 -8 5 -11
10 -3 6 -1 10 4 10 6 0 11 -4 11 -10z m-68 -32 c-9 -9 -15 -9 -24 0 -9 9 -7
12 12 12 19 0 21 -3 12 -12z"/>
<path d="M4218 1843 c7 -3 16 -2 19 1 4 3 -2 6 -13 5 -11 0 -14 -3 -6 -6z"/>
<path d="M3480 2636 c-111 -21 -132 -32 -93 -47 17 -7 17 -8 1 -8 -31 -2 -17
-71 14 -71 29 0 90 -35 126 -71 17 -18 50 -70 72 -116 23 -45 44 -83 48 -83 4
0 13 4 21 9 13 8 13 19 2 73 -6 35 -16 90 -22 123 -15 90 -18 97 -40 90 -26
-9 -37 21 -15 43 10 10 16 12 16 4 0 -7 4 -12 9 -12 5 0 8 8 6 18 -12 59 -16
72 -23 71 -4 -1 -59 -11 -122 -23z m100 -26 c0 -5 -4 -10 -10 -10 -5 0 -10 5
-10 10 0 6 5 10 10 10 6 0 10 -4 10 -10z m-23 -90 c0 -16 -4 -30 -8 -30 -11 0
-19 28 -13 45 10 25 21 17 21 -15z m-97 10 c0 -5 -5 -10 -11 -10 -5 0 -7 5 -4
10 3 6 8 10 11 10 2 0 4 -4 4 -10z m130 -100 c0 -5 -7 -10 -15 -10 -8 0 -15 5
-15 10 0 6 7 10 15 10 8 0 15 -4 15 -10z"/>
<path d="M3200 2583 c-77 -14 -82 -15 -161 -28 -53 -8 -66 -15 -69 -35 -7 -44
1 -60 34 -74 28 -12 37 -23 47 -58 7 -24 13 -47 14 -53 0 -5 9 -18 20 -27 19
-16 19 -17 1 -18 -14 0 -17 -5 -12 -22 3 -13 13 -70 23 -128 10 -58 21 -106
25 -108 4 -2 5 -9 2 -15 -2 -7 16 -120 41 -251 25 -132 45 -250 45 -263 0 -15
6 -23 18 -23 12 0 13 -3 5 -8 -10 -6 -10 -25 -1 -90 12 -78 11 -82 -10 -105
-25 -26 -29 -78 -8 -96 20 -17 279 28 264 46 -7 9 -6 14 6 19 11 4 22 -1 31
-12 26 -36 27 -3 5 141 -18 115 -26 148 -41 155 -28 15 -95 12 -109 -5 -7 -8
-17 -15 -23 -15 -7 0 0 12 15 27 18 18 38 27 62 27 20 1 36 6 35 11 -4 28 -24
55 -40 55 -18 0 -39 27 -39 49 0 15 16 14 33 -3 10 -10 17 -12 25 -4 7 7 10 5
9 -7 -1 -10 4 -20 12 -23 11 -3 12 1 7 19 -4 13 -8 35 -10 49 -8 66 -19 120
-25 120 -3 0 -6 21 -7 48 -1 57 -93 546 -103 550 -4 1 -6 15 -3 31 6 40 -17
141 -31 140 -7 -1 -46 -8 -87 -16z m-144 -100 c-10 -10 -19 5 -10 18 6 11 8
11 12 0 2 -7 1 -15 -2 -18z m239 -53 c3 -5 -1 -10 -9 -10 -9 0 -16 5 -16 10 0
6 4 10 9 10 6 0 13 -4 16 -10z m-45 -20 c0 -5 -7 -10 -15 -10 -8 0 -15 5 -15
10 0 6 7 10 15 10 8 0 15 -4 15 -10z m-85 -40 c-3 -5 -11 -10 -16 -10 -6 0 -7
5 -4 10 3 6 11 10 16 10 6 0 7 -4 4 -10z m-39 -38 c-5 -14 -13 -18 -26 -15
-27 7 -25 31 3 35 28 5 30 3 23 -20z m44 -356 c0 -3 -4 -8 -10 -11 -5 -3 -10
-1 -10 4 0 6 5 11 10 11 6 0 10 -2 10 -4z m90 -126 c0 -5 -4 -10 -10 -10 -5 0
-10 5 -10 10 0 6 5 10 10 10 6 0 10 -4 10 -10z m58 -71 c13 0 12 -2 -5 -9 -16
-6 -20 -15 -16 -32 4 -22 4 -22 -11 -4 -11 14 -13 24 -5 37 7 13 6 19 -1 19
-6 0 -8 5 -4 11 5 8 10 6 16 -5 5 -9 17 -16 26 -17z m42 -59 c0 -5 -7 -10 -16
-10 -8 0 -12 5 -9 10 3 6 10 10 16 10 5 0 9 -4 9 -10z m-15 -40 c3 -5 1 -10
-4 -10 -6 0 -11 5 -11 10 0 6 2 10 4 10 3 0 8 -4 11 -10z m22 -65 c1 -37 -11
-55 -21 -30 -5 13 8 65 17 65 2 0 3 -16 4 -35z m60 -10 c7 -20 -2 -29 -21 -22
-9 4 -13 13 -10 22 8 19 23 19 31 0z m-67 -55 c0 -5 -4 -10 -10 -10 -5 0 -10
5 -10 10 0 6 5 10 10 10 6 0 10 -4 10 -10z m-14 -78 c-9 -37 11 -60 54 -66 49
-6 70 -16 64 -30 -3 -7 2 -19 10 -26 9 -7 14 -16 11 -20 -3 -5 4 -15 14 -22
20 -14 20 -14 0 -32 -20 -17 -21 -17 -14 3 4 15 2 21 -8 21 -9 0 -17 -4 -19
-10 -1 -5 -13 -7 -25 -4 -26 7 -21 24 8 24 10 0 19 5 19 11 0 7 -12 9 -35 5
-35 -7 -35 -6 -29 19 5 19 3 26 -7 25 -28 -4 -50 0 -45 9 3 5 -1 11 -9 15 -8
3 -12 12 -9 21 4 8 1 22 -5 29 -9 11 -9 19 1 35 18 30 31 26 24 -7z m141 -18
c-3 -3 -12 -4 -19 -1 -8 3 -5 6 6 6 11 1 17 -2 13 -5z"/>
<path d="M460 2520 c0 -5 5 -10 11 -10 5 0 7 5 4 10 -3 6 -8 10 -11 10 -2 0
-4 -4 -4 -10z"/>
<path d="M2735 2499 c-49 -10 -103 -18 -118 -18 -22 -1 -27 -5 -23 -18 3 -10
8 -34 11 -54 6 -33 10 -37 46 -43 49 -8 119 -69 159 -139 17 -29 41 -56 64
-68 20 -10 36 -16 36 -11 0 4 -16 87 -35 185 -19 97 -35 179 -35 182 0 6 5 7
-105 -16z m85 -9 c0 -5 -4 -10 -10 -10 -5 0 -10 5 -10 10 0 6 5 10 10 10 6 0
10 -4 10 -10z"/>
<path d="M2365 2434 c-176 -35 -165 -30 -165 -65 0 -31 22 -61 52 -72 16 -6
38 -63 38 -99 0 -9 7 -24 16 -32 10 -10 11 -16 4 -16 -8 0 -9 -7 -5 -17 4 -10
13 -61 20 -113 8 -52 30 -180 50 -285 54 -287 86 -474 92 -530 4 -42 2 -53
-16 -69 -13 -12 -21 -31 -21 -51 0 -57 14 -59 160 -31 73 14 141 26 151 26 11
0 22 6 25 14 3 8 -6 81 -21 163 -47 259 -45 251 -61 228 -8 -10 -17 -16 -20
-12 -4 4 -1 14 6 23 12 13 11 17 -1 25 -12 8 -11 12 5 24 18 14 18 18 -7 152
-14 76 -33 183 -43 238 -12 76 -22 104 -38 118 -16 15 -17 18 -3 13 21 -7 21
-9 -3 109 -11 53 -24 127 -30 163 -18 118 -20 122 -43 121 -12 -1 -76 -12
-142 -25z m-55 -118 c0 -3 -4 -8 -10 -11 -5 -3 -10 -1 -10 4 0 6 5 11 10 11 6
0 10 -2 10 -4z m147 -268 c-3 -8 -6 -5 -6 6 -1 11 2 17 5 13 3 -3 4 -12 1 -19z
m99 -67 c-12 -19 -24 -12 -19 10 4 13 9 17 15 11 6 -6 7 -15 4 -21z m-136
-351 c0 -5 -2 -10 -4 -10 -3 0 -8 5 -11 10 -3 6 -1 10 4 10 6 0 11 -4 11 -10z
m170 -80 c0 -5 -4 -10 -10 -10 -5 0 -10 5 -10 10 0 6 5 10 10 10 6 0 10 -4 10
-10z m-115 -54 c0 -9 7 -21 15 -26 13 -8 13 -10 -2 -10 -17 0 -48 25 -48 39 0
12 13 22 24 18 6 -2 11 -11 11 -21z m172 8 c-3 -3 -12 -4 -19 -1 -8 3 -5 6 6
6 11 1 17 -2 13 -5z m-85 -22 c-7 -5 -10 -16 -6 -25 5 -14 2 -16 -12 -10 -19
7 -34 22 -34 36 0 4 15 7 33 7 20 0 27 -3 19 -8z m88 -16 c0 -9 -40 -13 -46
-5 -3 5 6 9 20 9 14 0 26 -2 26 -4z"/>
<path d="M1742 2323 c-25 -3 -32 -8 -28 -21 2 -9 7 -34 11 -54 3 -21 10 -38
14 -38 5 0 28 -18 51 -41 28 -28 48 -39 61 -36 10 3 19 1 19 -4 0 -5 -12 -9
-26 -9 -22 0 -25 -4 -21 -22 3 -13 8 -41 12 -63 12 -74 15 -85 30 -85 8 0 15
-4 15 -10 0 -5 -7 -7 -16 -3 -12 5 -15 1 -11 -13 12 -41 27 -140 27 -180 0
-31 -7 -51 -27 -74 -21 -26 -24 -33 -12 -41 19 -12 36 -11 44 1 3 6 11 10 17
10 6 0 3 -9 -7 -20 -10 -11 -26 -20 -37 -20 -31 0 -21 -36 17 -59 46 -27 56
-54 90 -226 21 -106 32 -143 47 -153 15 -11 16 -17 7 -28 -9 -11 -9 -14 0 -14
8 0 10 -8 6 -20 -7 -21 13 -25 27 -5 5 6 8 6 8 -2 0 -7 -7 -16 -16 -21 -15 -8
-15 -11 0 -34 60 -92 178 -108 252 -34 54 54 82 189 49 232 -15 19 -15 19 -30
0 -8 -11 -15 -26 -15 -33 0 -14 -26 -18 -34 -4 -3 4 -13 50 -21 102 -9 52 -17
99 -19 104 -22 82 -31 105 -52 136 -29 43 -85 76 -145 85 -44 7 -72 29 -64 50
2 7 -4 10 -16 7 -25 -7 -25 18 1 42 11 10 17 22 14 27 -4 7 0 7 12 0 11 -5 25
-7 32 -5 7 3 23 -2 36 -10 20 -14 23 -13 35 4 6 11 9 24 5 30 -3 6 3 19 15 30
15 14 21 32 21 62 0 23 3 52 6 65 5 19 2 23 -25 28 -17 4 -31 11 -31 16 0 6
11 8 25 6 33 -7 33 16 0 119 -32 102 -68 156 -98 147 -19 -6 -20 -5 -9 8 10
12 10 18 -2 27 -8 6 -18 10 -24 9 -5 -2 -9 1 -8 6 4 25 -112 41 -212 29z m178
-93 c0 -5 -4 -10 -10 -10 -5 0 -10 5 -10 10 0 6 5 10 10 10 6 0 10 -4 10 -10z
m70 -54 c0 -9 -8 -12 -26 -8 -19 3 -22 7 -12 13 20 13 38 11 38 -5z m-60 -36
c-41 -23 -57 -25 -38 -7 16 16 37 25 58 26 8 0 -1 -8 -20 -19z m135 -80 c-3
-5 -10 -10 -16 -10 -5 0 -9 5 -9 10 0 6 7 10 16 10 8 0 12 -4 9 -10z m5 -64
c0 -3 -4 -8 -10 -11 -5 -3 -10 -1 -10 4 0 6 5 11 10 11 6 0 10 -2 10 -4z
m-162 -410 c-10 -7 -15 -16 -11 -19 3 -4 2 -7 -3 -7 -6 0 -15 5 -22 12 -9 9
-6 15 16 24 32 13 44 8 20 -10z m172 -46 c0 -5 -5 -10 -11 -10 -6 0 -17 -6
-24 -14 -12 -12 -12 -15 3 -22 9 -4 24 -6 33 -5 11 1 15 -5 13 -21 -1 -13 -3
-28 -3 -35 -1 -17 -56 12 -81 44 l-20 25 23 18 c35 27 67 37 67 20z m85 -60
c-3 -5 -10 -10 -16 -10 -5 0 -9 5 -9 10 0 6 7 10 16 10 8 0 12 -4 9 -10z m-30
-58 c-16 -11 -16 -32 0 -32 8 0 15 -4 15 -10 0 -5 -12 -10 -26 -10 -14 0 -23
4 -20 9 4 5 1 11 -6 13 -7 3 -2 13 12 26 13 12 26 19 29 16 3 -3 1 -8 -4 -12z
m4 -246 c9 -11 8 -15 -5 -20 -8 -3 -17 -6 -18 -6 -1 0 -2 9 -3 20 -2 23 10 26
26 6z m-59 -26 c17 -10 14 -15 -17 -24 -18 -6 -20 -4 -16 14 6 22 11 24 33 10z
m40 -100 c0 -16 -7 -20 -30 -20 -28 0 -29 2 -18 20 7 11 21 20 30 20 11 0 18
-8 18 -20z"/>
<path d="M1603 2273 l-11 -28 -7 23 c-6 19 -12 22 -34 17 -14 -4 -40 -8 -57
-10 -85 -8 -110 -17 -128 -43 -16 -25 -17 -25 -10 -3 8 30 -16 24 -32 -8 -17
-33 -7 -56 32 -74 19 -9 34 -21 34 -27 0 -5 7 -7 15 -4 8 4 15 2 15 -4 0 -6
-5 -12 -11 -14 -20 -7 8 -89 42 -124 24 -25 29 -34 16 -34 -31 0 -29 -59 8
-260 20 -107 47 -253 60 -325 13 -71 24 -132 25 -135 1 -3 2 -8 1 -12 0 -4 6
-42 14 -85 21 -110 20 -130 -12 -157 -25 -22 -26 -25 -14 -55 12 -28 17 -31
60 -31 29 0 41 3 32 9 -8 5 -11 16 -6 30 3 11 2 21 -3 21 -6 0 -12 7 -16 15
-7 19 -4 19 21 -3 11 -9 22 -26 25 -37 3 -18 10 -20 58 -17 30 2 57 7 60 10 3
4 16 8 30 9 122 9 157 30 138 83 -5 17 -19 31 -34 34 -33 9 -52 42 -58 102 -3
28 -21 135 -40 238 -20 103 -36 190 -36 192 0 2 -3 3 -7 3 -20 -3 -24 2 -13
16 8 10 10 27 6 48 -4 17 -9 51 -12 74 -2 23 -15 97 -28 165 -13 67 -30 158
-37 201 -11 63 -16 77 -31 77 -10 0 -18 5 -18 10 0 6 7 10 15 10 16 0 19 18 7
37 -5 8 -13 9 -22 3 -8 -6 -28 -10 -43 -10 -20 0 -26 -4 -21 -12 5 -10 4 -10
-6 -1 -14 13 -4 37 11 27 5 -3 25 6 44 20 24 19 32 31 28 46 -8 29 -37 25 -50
-7z m-19 -152 c-7 -7 -34 21 -28 31 3 5 12 1 19 -9 7 -10 12 -20 9 -22z m16
-20 c0 -5 -7 -11 -15 -15 -15 -5 -20 5 -8 17 9 10 23 9 23 -2z m-40 -81 c0 -5
-5 -10 -11 -10 -5 0 -7 5 -4 10 3 6 8 10 11 10 2 0 4 -4 4 -10z m-75 -179 c3
-5 1 -12 -4 -15 -5 -3 -11 1 -15 9 -6 16 9 21 19 6z m45 -81 c0 -5 -5 -10 -11
-10 -5 0 -7 5 -4 10 3 6 8 10 11 10 2 0 4 -4 4 -10z m130 0 c-8 -5 -19 -10
-25 -10 -5 0 -3 5 5 10 8 5 20 10 25 10 6 0 3 -5 -5 -10z m0 -100 c8 -5 11
-10 5 -10 -5 0 -17 5 -25 10 -8 5 -10 10 -5 10 6 0 17 -5 25 -10z m78 -18 c2
-7 -3 -12 -12 -12 -9 0 -16 -4 -16 -10 0 -5 5 -10 10 -10 6 0 10 -9 10 -20 0
-11 -6 -20 -12 -20 -12 0 -14 18 -9 76 1 17 23 14 29 -4z m-208 -22 c0 -5 -2
-10 -4 -10 -3 0 -8 5 -11 10 -3 6 -1 10 4 10 6 0 11 -4 11 -10z m65 -50 c3 -5
1 -10 -4 -10 -6 0 -11 5 -11 10 0 6 2 10 4 10 3 0 8 -4 11 -10z m25 -110 c0
-5 -5 -10 -11 -10 -5 0 -7 5 -4 10 3 6 8 10 11 10 2 0 4 -4 4 -10z m65 -176
c13 -5 14 -8 3 -15 -19 -13 -28 -11 -28 6 0 17 2 18 25 9z m-45 -174 c0 -5 -5
-10 -11 -10 -5 0 -7 5 -4 10 3 6 8 10 11 10 2 0 4 -4 4 -10z m154 -25 c-4 -8
-1 -15 5 -15 7 0 14 7 17 15 4 8 10 15 16 15 5 0 7 -4 3 -9 -3 -6 2 -14 12
-20 17 -9 17 -10 -1 -30 -11 -12 -29 -21 -40 -21 -16 0 -18 -2 -7 -9 20 -13
25 -52 6 -45 -8 4 -15 12 -15 19 0 7 -9 15 -19 18 -27 7 -45 43 -26 51 8 3 15
1 15 -4 0 -6 16 -10 35 -10 19 0 35 4 35 10 0 5 -7 7 -15 4 -8 -3 -22 1 -30
10 -9 9 -23 16 -31 16 -8 0 -12 5 -9 10 3 6 17 10 30 10 18 0 23 -4 19 -15z
m-74 -45 c0 -5 -4 -10 -10 -10 -5 0 -10 5 -10 10 0 6 5 10 10 10 6 0 10 -4 10
-10z m154 -25 c3 -9 0 -15 -9 -15 -16 0 -27 14 -18 24 10 10 21 7 27 -9z m66
-26 c10 -18 9 -20 -7 -17 -10 2 -19 11 -21 21 -5 24 15 21 28 -4z m-350 -59
c0 -5 -4 -10 -9 -10 -6 0 -13 5 -16 10 -3 6 1 10 9 10 9 0 16 -4 16 -10z"/>
<path d="M3530 2214 c-6 -14 -10 -41 -10 -60 0 -30 3 -34 25 -34 14 0 25 -5
25 -11 0 -5 -9 -9 -21 -7 -16 2 -24 -5 -34 -36 -8 -21 -20 -45 -28 -53 -11
-11 -12 -25 -4 -66 13 -72 58 -105 71 -52 4 14 10 25 16 25 13 0 5 -53 -9 -58
-6 -2 -11 -8 -11 -13 0 -6 5 -7 12 -3 7 4 8 3 4 -5 -4 -6 -3 -17 2 -24 6 -7
18 -32 28 -57 24 -60 38 -74 54 -54 11 12 9 19 -9 37 -25 27 -27 42 -6 33 11
-4 15 1 15 17 -1 43 -18 111 -29 115 -6 2 -11 8 -11 13 0 6 5 7 11 3 7 -4 9 0
6 12 -3 11 -13 69 -23 130 -10 65 -22 111 -28 110 -6 -2 -8 -1 -3 1 11 7 8 38
-5 51 -18 18 -27 15 -38 -14z m62 -166 c-7 -7 -12 -22 -12 -34 0 -13 -5 -26
-11 -29 -6 -4 -8 -13 -5 -21 3 -7 1 -16 -4 -19 -17 -10 -19 11 -4 40 12 23 12
30 2 36 -10 6 -8 12 7 23 24 18 44 21 27 4z m38 -243 c0 -8 -4 -15 -10 -15 -5
0 -10 7 -10 15 0 8 5 15 10 15 6 0 10 -7 10 -15z"/>
<path d="M1126 2209 c-21 -5 -45 -17 -52 -27 -12 -15 -13 -15 -14 -1 0 14 -7
15 -50 6 -54 -10 -51 -4 -35 -81 4 -18 15 -26 47 -34 38 -10 140 -81 138 -97
0 -3 18 -41 40 -85 38 -76 64 -98 76 -66 4 11 -19 164 -55 355 -7 40 -26 51
-36 22 -4 -12 -15 -21 -27 -21 -19 0 -19 1 3 20 26 21 22 22 -35 9z m28 -94
c3 -9 0 -15 -9 -15 -8 0 -15 7 -15 15 0 8 4 15 9 15 5 0 11 -7 15 -15z"/>
<path d="M731 2139 c-79 -15 -148 -32 -153 -37 -17 -17 -4 -76 18 -87 33 -17
54 -36 54 -51 0 -26 34 -54 65 -53 16 0 23 3 15 6 -31 10 -60 27 -60 35 0 11
38 10 45 -2 9 -15 25 -12 25 5 0 21 17 19 30 -4 7 -13 7 -22 0 -26 -19 -12
-10 -45 15 -57 28 -13 33 -33 9 -42 -12 -4 -15 -2 -10 9 7 19 -27 20 -43 1 -9
-10 -8 -16 4 -26 8 -7 13 -16 10 -20 -3 -5 2 -15 10 -23 19 -19 21 -44 3 -30
-24 19 -66 24 -71 9 -8 -20 3 -56 17 -56 8 0 8 -2 -1 -8 -8 -5 -8 -21 -1 -60
10 -49 13 -52 42 -54 17 0 36 -2 41 -3 6 -2 16 -3 23 -4 7 0 10 -5 7 -11 -3
-5 -1 -10 4 -10 6 0 11 9 11 20 0 11 7 20 16 20 11 0 14 -6 9 -20 -5 -16 -2
-20 15 -20 12 0 19 -4 16 -9 -3 -4 0 -22 6 -39 14 -37 2 -55 -17 -28 -18 24
-41 15 -47 -19 -4 -20 -2 -25 10 -20 8 3 21 0 28 -6 8 -6 14 -7 14 -2 0 6 -10
15 -22 21 l-23 12 25 -3 c24 -2 59 -51 46 -64 -3 -3 -25 4 -49 16 -49 24 -61
26 -51 10 4 -8 -3 -9 -25 -4 l-32 7 2 -41 c2 -30 7 -41 19 -41 9 0 20 -3 23
-7 9 -9 -13 -34 -24 -27 -11 7 -11 5 2 -54 8 -38 16 -52 37 -63 26 -12 26 -13
5 -17 -13 -2 -23 -8 -23 -13 0 -5 10 -14 23 -19 17 -7 18 -9 5 -9 -12 -1 -18
-9 -18 -25 0 -43 10 -56 46 -56 27 0 32 3 27 18 -4 12 0 10 11 -5 14 -19 15
-26 4 -43 -15 -24 -15 -24 -51 -5 -27 14 -28 14 -21 -8 4 -12 10 -23 14 -25
14 -6 -2 -107 -21 -128 -15 -16 -16 -23 -7 -32 9 -9 9 -12 0 -12 -7 0 -12 -8
-12 -19 0 -14 6 -17 28 -13 15 2 33 9 39 14 18 15 46 1 39 -18 -5 -13 -1 -15
22 -10 15 3 80 15 145 27 101 18 120 25 126 43 11 27 -1 58 -26 71 -40 21 -52
37 -59 81 -3 24 -9 42 -13 40 -3 -2 -7 21 -8 50 -1 31 -8 66 -17 79 -18 28
-20 39 -6 30 11 -7 10 -1 -20 156 -11 59 -20 109 -20 113 0 3 -7 3 -15 0 -8
-4 -15 -2 -15 3 0 6 -10 15 -22 21 l-23 11 25 0 c15 1 31 -4 37 -10 8 -8 9 -1
3 27 -5 22 -23 120 -40 219 -54 316 -83 455 -94 454 -6 0 -76 -14 -155 -30z
m73 -74 c4 -11 -1 -15 -17 -15 -35 0 -67 11 -61 21 9 15 71 10 78 -6z m-84
-25 c0 -5 -4 -10 -10 -10 -5 0 -10 5 -10 10 0 6 5 10 10 10 6 0 10 -4 10 -10z
m16 -328 c-9 -9 -37 8 -31 18 5 8 11 7 21 -1 8 -6 12 -14 10 -17z m199 -12 c3
-5 -1 -10 -9 -10 -9 0 -16 5 -16 10 0 6 4 10 9 10 6 0 13 -4 16 -10z m-142
-72 c-2 -5 0 -8 5 -8 15 0 23 -28 10 -36 -7 -5 -8 -2 -3 6 6 9 2 10 -15 5 -19
-6 -22 -4 -16 11 5 12 -1 25 -20 41 -18 15 -24 28 -20 39 6 15 11 12 35 -17
16 -19 27 -37 24 -41z m2 52 c3 -5 1 -10 -4 -10 -6 0 -11 5 -11 10 0 6 2 10 4
10 3 0 8 -4 11 -10z m69 -35 c4 -13 2 -14 -14 -5 -23 13 -26 20 -6 20 8 0 16
-7 20 -15z m16 -45 c0 -5 -4 -10 -9 -10 -6 0 -13 5 -16 10 -3 6 1 10 9 10 9 0
16 -4 16 -10z m90 -150 c0 -5 -4 -10 -10 -10 -5 0 -10 5 -10 10 0 6 5 10 10
10 6 0 10 -4 10 -10z m-80 -196 c0 -9 -5 -14 -12 -12 -18 6 -21 28 -4 28 9 0
16 -7 16 -16z m118 -14 c7 -11 8 -20 3 -20 -6 0 -13 5 -17 11 -3 6 -17 9 -30
6 -25 -4 -33 8 -11 16 25 11 43 6 55 -13z m37 -35 c0 -14 -6 -25 -14 -25 -8 0
-11 6 -7 16 3 9 6 20 6 25 0 5 3 9 8 9 4 0 7 -11 7 -25z m-125 -25 c-20 -13
-40 -13 -40 0 0 6 12 10 28 10 21 0 24 -2 12 -10z m-20 -30 c0 -5 -7 -10 -15
-10 -8 0 -15 5 -15 10 0 6 7 10 15 10 8 0 15 -4 15 -10z m100 -4 c0 -3 -4 -8
-10 -11 -5 -3 -10 -1 -10 4 0 6 5 11 10 11 6 0 10 -2 10 -4z m-50 -66 c0 -5
-12 -10 -26 -10 -14 0 -23 4 -19 10 3 6 15 10 26 10 10 0 19 -4 19 -10z m10
-64 c0 -11 -19 -15 -25 -6 -3 5 1 10 9 10 9 0 16 -2 16 -4z m60 -21 c0 -8 6
-15 13 -15 8 0 13 -8 12 -17 0 -10 -5 -18 -10 -18 -6 0 -9 6 -9 13 1 6 -9 12
-22 12 -26 0 -30 10 -12 28 16 16 28 15 28 -3z m-83 -21 c-9 -9 -28 6 -21 18
4 6 10 6 17 -1 6 -6 8 -13 4 -17z m-47 -4 c0 -5 -4 -10 -10 -10 -5 0 -10 5
-10 10 0 6 5 10 10 10 6 0 10 -4 10 -10z m20 -24 c0 -3 -4 -8 -10 -11 -5 -3
-10 -1 -10 4 0 6 5 11 10 11 6 0 10 -2 10 -4z m89 -37 c9 0 4 -5 -11 -11 -16
-5 -28 -14 -28 -19 0 -5 -4 -9 -10 -9 -17 0 -11 27 7 34 12 5 14 9 5 18 -7 7
-12 17 -11 23 0 5 7 0 16 -12 8 -13 23 -23 32 -24z m111 -9 c0 -5 -5 -10 -11
-10 -5 0 -7 5 -4 10 3 6 8 10 11 10 2 0 4 -4 4 -10z m-45 -10 c3 -5 1 -10 -4
-10 -6 0 -11 5 -11 10 0 6 2 10 4 10 3 0 8 -4 11 -10z m42 -35 c0 -8 -4 -15
-9 -15 -10 0 -11 14 -1 23 9 10 10 9 10 -8z m-146 -9 c21 -8 42 -10 54 -5 29
11 57 11 50 -1 -4 -6 -12 -8 -18 -4 -7 3 -3 -1 7 -10 19 -15 18 -16 -5 -25
-17 -6 -29 -5 -40 5 -8 8 -31 14 -50 14 -28 0 -35 4 -36 20 -2 24 -4 23 38 6z"/>
<path d="M2856 2125 c4 -8 17 -15 30 -15 27 0 32 15 8 24 -28 11 -44 7 -38 -9z"/>
<path d="M2764 2088 c-4 -6 -11 -49 -14 -95 -5 -59 -13 -92 -26 -111 -23 -31
-20 -72 4 -73 11 0 12 -3 5 -6 -24 -9 -13 -43 27 -79 25 -23 47 -56 60 -92 24
-64 36 -82 56 -82 19 0 18 45 -5 171 -11 57 -27 149 -36 204 -9 55 -21 117
-26 138 -10 37 -31 48 -45 25z m66 -178 c0 -5 -4 -10 -10 -10 -5 0 -10 5 -10
10 0 6 5 10 10 10 6 0 10 -4 10 -10z m-4 -68 c-8 -9 -18 -13 -22 -10 -8 9 19
37 29 31 5 -3 2 -12 -7 -21z m-6 -122 c0 -5 -2 -10 -4 -10 -3 0 -8 5 -11 10
-3 6 -1 10 4 10 6 0 11 -4 11 -10z"/>
<path d="M1420 1970 c0 -5 5 -10 10 -10 6 0 10 5 10 10 0 6 -4 10 -10 10 -5 0
-10 -4 -10 -10z"/>
<path d="M668 1865 c2 -14 8 -25 13 -25 10 0 11 12 3 34 -10 25 -22 19 -16 -9z"/>
<path d="M1130 1774 c-6 -14 -10 -51 -10 -82 0 -31 -6 -67 -13 -78 -6 -12 -17
-30 -23 -40 -13 -24 2 -124 19 -124 16 -1 81 -60 73 -67 -7 -7 22 -63 33 -63
5 0 7 -8 4 -19 -2 -10 3 -26 13 -36 17 -16 18 -16 31 1 7 10 10 27 6 38 -3 12
-7 32 -9 44 -3 32 -9 36 -34 22 -34 -18 -38 -1 -6 27 l29 25 -17 96 c-32 173
-37 192 -51 192 -16 0 -30 18 -21 27 3 3 12 0 21 -7 13 -11 15 -10 11 1 -2 8
-7 26 -10 42 -8 34 -33 35 -46 1z"/>
<path d="M680 1780 c0 -5 5 -10 10 -10 6 0 10 5 10 10 0 6 -4 10 -10 10 -5 0
-10 -4 -10 -10z"/>
<path d="M3746 1668 c-3 -18 -8 -60 -12 -93 -9 -73 -6 -60 -33 -123 -21 -47
-79 -112 -100 -112 -8 0 4 -88 13 -97 5 -6 136 20 136 26 0 3 25 7 56 8 31 1
58 3 59 5 2 2 -10 73 -26 158 -15 85 -28 165 -29 178 0 13 -6 22 -16 22 -12 0
-14 7 -9 30 6 26 4 30 -14 30 -15 0 -21 -8 -25 -32z m-76 -328 c13 -8 12 -11
-5 -24 -27 -20 -35 -20 -35 2 0 31 14 39 40 22z m-5 -60 c3 -5 1 -10 -4 -10
-6 0 -11 5 -11 10 0 6 2 10 4 10 3 0 8 -4 11 -10z"/>
<path d="M2976 1528 c-3 -18 -7 -56 -10 -83 -9 -101 -66 -207 -129 -242 -15
-8 -17 -15 -8 -52 5 -23 12 -45 14 -48 5 -4 70 7 137 23 14 4 46 9 73 11 26 3
47 6 47 6 -6 49 -57 296 -60 293 -3 -2 -5 12 -6 32 -1 61 -12 92 -34 92 -14 0
-20 -9 -24 -32z m60 -156 c-10 -10 -39 25 -31 38 5 8 12 5 22 -10 8 -12 12
-24 9 -28z"/>
<path d="M735 1513 c11 -85 13 -90 46 -85 23 3 27 7 18 18 -6 7 -8 18 -4 24 4
7 -2 14 -14 17 -27 7 -27 18 2 38 22 17 22 17 0 11 -12 -4 -24 -2 -28 4 -14
22 -24 8 -20 -27z"/>
</g>
</svg>
